{"title":"Suicide Squad 2016 HDTS x264-CPG","uid":15559538,"size":2162091947,"categoryP":"video","categoryS":"movies","magnet":"?xt=urn:btih:a62aa24ea1effe8aee9e2d1ad8986ed1f30cb108&amp;dn=Suicide+Squad+2016+HDTS+x264-CPG&amp;tr=udp%3A%2F%2Ftracker.leechers-paradise.org%3A6969&amp;tr=udp%3A%2F%2Fzer0day.ch%3A1337&amp;tr=udp%3A%2F%2Fopen.demonii.com%3A1337&amp;tr=udp%3A%2F%2Ftracker.coppersurfer.tk%3A6969&amp;tr=udp%3A%2F%2Fexodus.desync.com%3A6969","seeders":5,"leechers":3,"uploader":"Isseidxd","files":4,"time":1471109786,"description":"Screens: \nhttp://imgnew.ml/img-57af3d4aad793.html \nhttp://imgnew.ml/img-57af3d4ab11c6.html \nhttp://imgnew.ml/img-57af3d4ab48b0.html \nhttp://imgnew.ml/img-57af3d4ab7d8f.html \nhttp://imgnew.ml/img-57af3d4abd6c7.html\r\n\r\n\r\nFormat                                   : Matroska\r\nFormat version                           : Version 4 / Version 2\r\nFile size                                : 1.98 GiB\r\nDuration                                 : 1h 53mn\r\nOverall bit rate                         : 2 502 Kbps\r\nEncoded date                             : UTC 2016-08-12 22:40:14\r\nWriting application                      : mkvmerge v6.0.0 ('Coming Up For Air') built on Jan 20 2013 09:52:00\r\nWriting library                          : libebml v1.3.0 + libmatroska v1.4.0\r\nDURATION                                 : 00:58:08.000000000\r\nNUMBER_OF_FRAMES                         : 133525\r\nNUMBER_OF_BYTES                          : 83712000\r\n_STATISTICS_WRITING_APP                  : mkvmerge v9.3.1 ('Mask Machine') 32bit\r\n_STATISTICS_WRITING_DATE_UTC             : 2016-08-12 22:39:15\r\n_STATISTICS_TAGS                         : BPS DURATION NUMBER_OF_FRAMES NUMBER_OF_BYTES\r\n\r\nVideo\r\nID                                       : 1\r\nFormat                                   : AVC\r\nFormat/Info                              : Advanced Video Codec\r\nFormat profile                           :   \r\nFormat settings, CABAC                   : Yes\r\nFormat settings, ReFrames                : 3 frames\r\nCodec ID                                 : V_MPEG4/ISO/AVC\r\nDuration                                 : 1h 53mn\r\nBit rate                                 : 2 300 Kbps\r\nWidth                                    : 720 pixels\r\nHeight                                   : 320 pixels\r\nDisplay aspect ratio                     : 2.25:1\r\nFrame rate mode                          : Constant\r\nFrame rate                               : 25.000 fps\r\nColor space                              : YUV\r\nChroma subsampling                       : 4:2:0\r\nBit depth                                : 8 bits\r\nScan type                                : Progressive\r\nBits/(Pixel*Frame)                       : 0.399\r\nStream size                              : 1.79 GiB (90%)\r\nWriting library                          : x264 core 148 r2638 7599210\r\nDefault                                  : Yes\r\nForced                                   : No\r\n\r\nAudio\r\nID                                       : 2\r\nFormat                                   : MPEG Audio\r\nFormat version                           : Version 1\r\nFormat profile                           : Layer 3\r\nCodec ID                                 : A_MPEG/L3\r\nCodec ID/Hint                            : MP3\r\nDuration                                 : 1h 53mn\r\nBit rate mode                            : Constant\r\nBit rate                                 : 192 Kbps\r\nChannel(s)                               : 2 channels\r\nSampling rate                            : 44.1 KHz\r\nCompression mode                         : Lossy\r\nDelay relative to video                  : 9ms\r\nStream size                              : 156 MiB (8%)\r\nDefault                                  : Yes\r\nForced                                   : No","torrent":{"xt":"urn:btih:a62aa24ea1effe8aee9e2d1ad8986ed1f30cb108","amp;dn":"Suicide+Squad+2016+HDTS+x264-CPG","amp;tr":["udp%3A%2F%2Ftracker.leechers-paradise.org%3A6969","udp%3A%2F%2Fzer0day.ch%3A1337","udp%3A%2F%2Fopen.demonii.com%3A1337","udp%3A%2F%2Ftracker.coppersurfer.tk%3A6969","udp%3A%2F%2Fexodus.desync.com%3A6969"],"infoHash":"a62aa24ea1effe8aee9e2d1ad8986ed1f30cb108","infoHashBuffer":{"type":"Buffer","data":[166,42,162,78,161,239,254,138,238,158,45,26,216,152,110,209,243,12,177,8]},"announce":[],"urlList":[]}}